<svg width="128" height="128" xmlns="http://www.w3.org/2000/svg">
  <rect width="128" height="128" fill="#e74c3c"/>
  <path d="M 64 20 Q 64 40, 50 50 Q 40 55, 40 65 Q 40 80, 64 100 Q 88 80, 88 65 Q 88 55, 78 50 Q 64 40, 64 20" fill="#ff6b35"/>
  <path d="M 64 30 Q 64 45, 55 52 Q 50 56, 50 65 Q 50 75, 64 88 Q 78 75, 78 65 Q 78 56, 73 52 Q 64 45, 64 30" fill="#ff9500"/>
  <path d="M 64 40 Q 64 50, 60 54 Q 58 57, 58 65 Q 58 70, 64 78 Q 70 70, 70 65 Q 70 57, 68 54 Q 64 50, 64 40" fill="#ffeb3b"/>
</svg>
